<svg width="300" height="300" viewBox="0 0 300 300" fill="none" xmlns="http://www.w3.org/2000/svg">
<path d="M28.9229 252.477L26.2741 242.093C21.5776 240.114 16.7725 238.4 11.8819 236.96L11.5475 241.786L10.1916 236.469C4.1263 234.745 0 233.987 0 233.987C0 233.987 5.57226 255.055 17.2635 271.163L30.8849 273.541L20.3029 275.058C21.7735 276.817 23.3539 278.482 25.0348 280.044C42.0404 295.735 60.9816 302.935 67.3409 296.124C73.7002 289.313 65.0696 271.072 48.0641 255.383C42.7922 250.518 36.1697 246.615 29.5403 243.542L28.9229 252.477Z" fill="#3FBDF1"/>
<path d="M54.0815 241.205L57.2218 230.934C54.2231 226.82 50.9932 222.876 47.5475 219.123L44.7447 223.09L46.3525 217.831C42.0453 213.232 38.8997 210.458 38.8997 210.458C38.8997 210.458 32.7005 231.397 34.3358 251.23L44.7852 260.283L34.9118 256.136C35.2573 258.402 35.7458 260.644 36.3747 262.85C42.7888 285.063 55.2905 300.989 64.2978 298.421C73.305 295.854 75.4074 275.765 68.9932 253.552C67.0049 246.666 63.3562 239.909 59.2692 233.861L54.0815 241.205Z" fill="#3FBDF1"/>
<path d="M209.607 71.1354H207.954V26.0786C207.954 22.654 207.276 19.2628 205.959 16.0988C204.642 12.9348 202.712 10.0599 200.278 7.63826C197.845 5.21663 194.956 3.29569 191.776 1.98512C188.596 0.674542 185.188 0 181.747 0H85.8142C78.8636 0 72.1977 2.74756 67.2829 7.63826C62.368 12.529 59.6069 19.1622 59.6069 26.0786V273.268C59.6069 276.692 60.2848 280.084 61.6018 283.248C62.9189 286.412 64.8493 289.287 67.2829 291.708C69.7164 294.13 72.6055 296.051 75.7851 297.361C78.9647 298.672 82.3726 299.346 85.8142 299.346H181.747C188.697 299.346 195.363 296.599 200.278 291.708C205.193 286.817 207.954 280.184 207.954 273.268V103.208H209.607L209.607 71.1354Z" fill="black" fill-opacity="0.47"/>
<path d="M182.823 6.53589H170.296C170.873 7.9401 171.093 9.46362 170.937 10.9722C170.781 12.4808 170.255 13.9282 169.404 15.1868C168.553 16.4455 167.403 17.4767 166.057 18.1898C164.711 18.9028 163.209 19.2757 161.683 19.2757H106.703C105.178 19.2756 103.676 18.9026 102.33 18.1895C100.984 17.4764 99.8346 16.4451 98.9837 15.1865C98.1329 13.9279 97.6065 12.4806 97.4508 10.972C97.2951 9.46348 97.515 7.94004 98.0911 6.53589H86.3909C81.1982 6.53589 76.2183 8.5866 72.5465 12.2369C68.8748 15.8872 66.812 20.838 66.812 26.0003V272.692C66.812 277.855 68.8748 282.806 72.5465 286.456C76.2183 290.106 81.1982 292.157 86.3909 292.157H182.823C188.015 292.157 192.995 290.106 196.667 286.456C200.339 282.806 202.402 277.855 202.402 272.692V272.692V25.9999C202.401 20.8377 200.339 15.8869 196.667 12.2367C192.995 8.58654 188.015 6.53589 182.823 6.53589V6.53589Z" fill="white"/>
<path d="M122.269 104.903C122.269 103.124 122.713 101.377 123.556 99.8365C124.4 98.2964 125.613 97.0177 127.074 96.1293C125.614 95.2398 123.957 94.7714 122.271 94.7712C120.584 94.771 118.928 95.239 117.467 96.1281C116.007 97.0172 114.794 98.2961 113.951 99.8363C113.107 101.376 112.664 103.124 112.664 104.902C112.664 106.68 113.107 108.428 113.951 109.968C114.794 111.508 116.007 112.787 117.467 113.676C118.928 114.565 120.584 115.033 122.271 115.033C123.957 115.032 125.614 114.564 127.074 113.675C125.613 112.786 124.4 111.508 123.556 109.968C122.713 108.428 122.269 106.681 122.269 104.903V104.903Z" fill="#CCCCCC"/>
<path d="M134.715 104.903C134.714 103.124 135.158 101.377 136.002 99.8365C136.845 98.2963 138.059 97.0177 139.52 96.1293C138.06 95.2398 136.403 94.7714 134.717 94.7712C133.03 94.771 131.374 95.239 129.913 96.1281C128.453 97.0172 127.24 98.2961 126.397 99.8363C125.553 101.376 125.109 103.124 125.109 104.902C125.109 106.68 125.553 108.428 126.397 109.968C127.24 111.508 128.453 112.787 129.913 113.676C131.374 114.565 133.03 115.033 134.717 115.033C136.403 115.032 138.06 114.564 139.52 113.675C138.059 112.786 136.846 111.508 136.002 109.968C135.159 108.428 134.715 106.681 134.715 104.903V104.903Z" fill="#CCCCCC"/>
<path d="M146.725 115.033C152.151 115.033 156.55 110.497 156.55 104.902C156.55 99.3069 152.151 94.7712 146.725 94.7712C141.298 94.7712 136.899 99.3069 136.899 104.902C136.899 110.497 141.298 115.033 146.725 115.033Z" fill="#00B0FF"/>
<path d="M163.003 135.294H105.556C105.01 135.293 104.485 135.079 104.099 134.697C103.712 134.315 103.494 133.798 103.494 133.258V76.5462C103.494 76.0063 103.712 75.4887 104.099 75.1069C104.485 74.7252 105.01 74.5104 105.556 74.5098H163.003C163.55 74.5104 164.074 74.7252 164.461 75.1069C164.848 75.4887 165.065 76.0063 165.066 76.5462V133.258C165.065 133.798 164.848 134.315 164.461 134.697C164.074 135.079 163.55 135.293 163.003 135.294V135.294ZM105.556 75.3248C105.228 75.3251 104.914 75.454 104.682 75.683C104.45 75.9121 104.319 76.2227 104.319 76.5466V133.258C104.319 133.582 104.45 133.893 104.682 134.122C104.914 134.351 105.228 134.479 105.556 134.48H163.003C163.331 134.479 163.646 134.351 163.878 134.122C164.11 133.893 164.24 133.582 164.24 133.258V76.5466C164.24 76.2227 164.11 75.9121 163.878 75.683C163.646 75.454 163.331 75.3251 163.003 75.3248H105.556Z" fill="#CCCCCC"/>
<path d="M176.201 179.739H87.7729V180.392H176.201V179.739Z" fill="#CCCCCC"/>
<path d="M90.7205 174.51C92.3485 174.51 93.6681 173.193 93.6681 171.569C93.6681 169.944 92.3485 168.627 90.7205 168.627C89.0926 168.627 87.7729 169.944 87.7729 171.569C87.7729 173.193 89.0926 174.51 90.7205 174.51Z" fill="#00B0FF"/>
<path d="M176.201 207.189H87.7729V207.843H176.201V207.189Z" fill="#CCCCCC"/>
<path d="M90.7205 201.961C92.3485 201.961 93.6681 200.79 93.6681 199.346C93.6681 197.902 92.3485 196.732 90.7205 196.732C89.0926 196.732 87.7729 197.902 87.7729 199.346C87.7729 200.79 89.0926 201.961 90.7205 201.961Z" fill="#00B0FF"/>
<path d="M174.388 238.562H146.572C146.092 238.562 145.631 238.375 145.291 238.043C144.951 237.711 144.76 237.26 144.76 236.791V227.262C144.76 226.792 144.951 226.342 145.291 226.01C145.631 225.678 146.092 225.491 146.572 225.49H174.388C174.869 225.491 175.33 225.678 175.669 226.01C176.009 226.342 176.2 226.792 176.201 227.262V236.791C176.2 237.26 176.009 237.711 175.669 238.043C175.33 238.375 174.869 238.562 174.388 238.562V238.562Z" fill="#00B0FF"/>
<path d="M99.891 174.51C101.519 174.51 102.839 173.193 102.839 171.569C102.839 169.944 101.519 168.627 99.891 168.627C98.263 168.627 96.9434 169.944 96.9434 171.569C96.9434 173.193 98.263 174.51 99.891 174.51Z" fill="#00B0FF"/>
<path d="M109.061 174.51C110.689 174.51 112.009 173.193 112.009 171.569C112.009 169.944 110.689 168.627 109.061 168.627C107.433 168.627 106.114 169.944 106.114 171.569C106.114 173.193 107.433 174.51 109.061 174.51Z" fill="#00B0FF"/>
<path d="M99.891 201.961C101.519 201.961 102.839 200.79 102.839 199.346C102.839 197.902 101.519 196.732 99.891 196.732C98.263 196.732 96.9434 197.902 96.9434 199.346C96.9434 200.79 98.263 201.961 99.891 201.961Z" fill="#00B0FF"/>
<path d="M109.061 201.961C110.689 201.961 112.009 200.79 112.009 199.346C112.009 197.902 110.689 196.732 109.061 196.732C107.433 196.732 106.114 197.902 106.114 199.346C106.114 200.79 107.433 201.961 109.061 201.961Z" fill="#00B0FF"/>
<path d="M298.879 300H9.63588C9.01669 300 8.51514 299.854 8.51514 299.673C8.51514 299.493 9.01669 299.346 9.63588 299.346H298.879C299.498 299.346 300 299.493 300 299.673C300 299.854 299.498 300 298.879 300Z" fill="#3F3D56"/>
<path d="M227.287 196.62C227.487 196.711 227.679 196.818 227.863 196.94L246.177 189.16L246.831 184.358L254.149 184.314L253.716 195.327L229.543 201.69C229.492 201.857 229.431 202.021 229.361 202.181C229.011 202.923 228.449 203.546 227.745 203.971C227.041 204.397 226.226 204.606 225.404 204.572C224.581 204.538 223.786 204.263 223.12 203.781C222.454 203.299 221.945 202.632 221.659 201.863C221.372 201.095 221.32 200.259 221.509 199.461C221.698 198.664 222.119 197.939 222.721 197.379C223.322 196.819 224.076 196.448 224.888 196.313C225.701 196.178 226.535 196.285 227.287 196.62V196.62Z" fill="#FFB8B8"/>
<path d="M256.768 295.425H251.886L249.563 276.471L256.769 276.471L256.768 295.425Z" fill="#FFB8B8"/>
<path d="M248.179 294.118H257.423V300H242.358C242.358 298.44 242.971 296.944 244.063 295.841C245.154 294.737 246.635 294.118 248.179 294.118Z" fill="#2F2E41"/>
<path d="M275.764 293.646L270.822 294.118L266.594 275.86L273.887 275.163L275.764 293.646Z" fill="#FFB8B8"/>
<path d="M267.196 293.24L276.673 292.309L277.261 298.263L261.817 299.78C261.74 298.999 261.817 298.209 262.046 297.457C262.275 296.705 262.649 296.006 263.149 295.399C263.648 294.791 264.263 294.288 264.957 293.918C265.652 293.547 266.412 293.317 267.196 293.24Z" fill="#2F2E41"/>
<path d="M258.079 164.052C263.505 164.052 267.904 159.663 267.904 154.248C267.904 148.834 263.505 144.444 258.079 144.444C252.652 144.444 248.253 148.834 248.253 154.248C248.253 159.663 252.652 164.052 258.079 164.052Z" fill="#FFB8B8"/>
<path d="M250.629 291.503C250.206 291.504 249.796 291.356 249.472 291.085C249.147 290.814 248.929 290.437 248.856 290.021C246.308 275.902 237.978 229.735 237.779 228.457C237.775 228.427 237.773 228.398 237.773 228.368V224.926C237.773 224.8 237.812 224.678 237.885 224.576L238.986 223.038C239.038 222.964 239.106 222.903 239.186 222.859C239.266 222.816 239.354 222.791 239.445 222.787C245.718 222.494 266.263 221.633 267.255 222.871C268.252 224.115 267.9 227.884 267.819 228.627L267.823 228.704L277.053 287.623C277.126 288.093 277.01 288.573 276.73 288.958C276.451 289.343 276.031 289.603 275.562 289.681L269.797 290.63C269.367 290.698 268.927 290.611 268.557 290.384C268.187 290.156 267.91 289.803 267.778 289.39C265.995 283.703 260.017 264.572 257.944 257.169C257.932 257.122 257.902 257.082 257.861 257.055C257.82 257.028 257.771 257.017 257.723 257.024C257.675 257.031 257.631 257.055 257.599 257.092C257.567 257.129 257.55 257.176 257.551 257.225C257.654 264.281 257.904 282.285 257.991 288.504L258 289.173C258.004 289.627 257.837 290.065 257.533 290.402C257.229 290.738 256.809 290.949 256.357 290.992L250.798 291.496C250.741 291.501 250.685 291.503 250.629 291.503Z" fill="#2F2E41"/>
<path d="M251.449 168.237C249.726 169.258 248.695 171.136 248.103 173.047C247.008 176.585 246.348 180.242 246.139 183.939L245.514 195.007L237.773 224.351C244.482 230.013 248.352 228.726 257.384 224.094C266.416 219.462 267.448 225.639 267.448 225.639L269.254 200.671L271.834 173.388C271.255 172.693 270.599 172.064 269.88 171.514C267.495 169.664 264.72 168.378 261.764 167.753C258.808 167.128 255.749 167.181 252.817 167.906L251.449 168.237Z" fill="#00B0FF"/>
<path d="M249.336 202.256C249.544 202.335 249.745 202.43 249.938 202.54L267.734 193.592L268.03 188.744L275.371 188.235L275.764 199.286L251.982 207.187C251.787 208.024 251.344 208.781 250.711 209.359C250.078 209.937 249.285 210.307 248.437 210.42C247.589 210.534 246.727 210.386 245.965 209.995C245.203 209.605 244.578 208.99 244.172 208.234C243.766 207.478 243.599 206.615 243.694 205.761C243.788 204.907 244.138 204.102 244.699 203.453C245.259 202.804 246.003 202.342 246.831 202.128C247.66 201.915 248.533 201.959 249.336 202.256Z" fill="#FFB8B8"/>
<path d="M271.978 173.088C276.311 174.655 277.074 191.635 277.074 191.635C271.977 188.762 265.86 193.464 265.86 193.464C265.86 193.464 264.585 189.023 263.056 183.277C262.594 181.66 262.539 179.95 262.895 178.306C263.252 176.662 264.009 175.137 265.095 173.873C265.095 173.873 267.645 171.52 271.978 173.088Z" fill="#00B0FF"/>
<path d="M267.072 156.721C265.836 155.749 264.149 157.516 264.149 157.516L263.159 148.764C263.159 148.764 256.977 149.492 253.02 148.521C249.063 147.55 248.445 152.047 248.445 152.047C248.241 150.23 248.2 148.4 248.322 146.576C248.569 144.388 251.784 142.2 257.472 140.742C263.159 139.283 266.127 145.604 266.127 145.604C270.084 147.549 268.308 157.694 267.072 156.721Z" fill="#2F2E41"/>
</svg>
